<mxfile host="app.diagrams.net" agent="Mozilla/5.0 (Macintosh; Intel Mac OS X 10_15_7) AppleWebKit/537.36 (KHTML, like Gecko) Chrome/126.0.0.0 Safari/537.36" version="24.8.6">
  <diagram name="Page-1" id="Ch82rlO6a8tJsDAHAaDf">
    <mxGraphModel dx="4588" dy="2856" grid="0" gridSize="10" guides="1" tooltips="1" connect="1" arrows="1" fold="1" page="1" pageScale="1" pageWidth="1600" pageHeight="900" math="0" shadow="0">
      <root>
        <mxCell id="0" />
        <mxCell id="1" parent="0" />
        <mxCell id="qGz8__w2eA65XW-UulH--1" value="External Integration" style="whiteSpace=wrap;strokeWidth=2;verticalAlign=top;fontSize=33;" vertex="1" parent="1">
          <mxGeometry x="3186" y="1784" width="3781" height="446" as="geometry" />
        </mxCell>
        <mxCell id="qGz8__w2eA65XW-UulH--9" value="Integration Services" style="whiteSpace=wrap;strokeWidth=2;fontSize=33;" vertex="1" parent="1">
          <mxGeometry x="3258" y="2603" width="1388" height="415" as="geometry" />
        </mxCell>
        <mxCell id="qGz8__w2eA65XW-UulH--16" value="Payments" style="whiteSpace=wrap;strokeWidth=2;verticalAlign=top;fontSize=33;" vertex="1" parent="1">
          <mxGeometry x="26" y="2367" width="2378" height="439" as="geometry" />
        </mxCell>
        <mxCell id="qGz8__w2eA65XW-UulH--20" value="Trade Services" style="whiteSpace=wrap;strokeWidth=2;fontSize=33;verticalAlign=top;" vertex="1" parent="1">
          <mxGeometry x="20" y="756" width="2192" height="1458" as="geometry" />
        </mxCell>
        <mxCell id="qGz8__w2eA65XW-UulH--23" value="Core Trade Services" style="whiteSpace=wrap;strokeWidth=2;verticalAlign=top;fontSize=33;" vertex="1" parent="1">
          <mxGeometry x="3674" y="583" width="6930" height="687" as="geometry" />
        </mxCell>
        <mxCell id="qGz8__w2eA65XW-UulH--27" value="Trade Core" style="whiteSpace=wrap;strokeWidth=2;fontSize=33;" vertex="1" parent="1">
          <mxGeometry x="3694" y="608" width="6890" height="98" as="geometry" />
        </mxCell>
        <mxCell id="qGz8__w2eA65XW-UulH--28" value="Channel Services" style="whiteSpace=wrap;strokeWidth=2;verticalAlign=top;fontSize=33;" vertex="1" parent="1">
          <mxGeometry x="4851" y="367" width="5315" height="166" as="geometry" />
        </mxCell>
        <mxCell id="qGz8__w2eA65XW-UulH--29" value="Mobile Services" style="whiteSpace=wrap;strokeWidth=2;fontSize=33;" vertex="1" parent="1">
          <mxGeometry x="4871" y="392" width="812" height="116" as="geometry" />
        </mxCell>
        <mxCell id="qGz8__w2eA65XW-UulH--30" value="Operations Channel Services" style="whiteSpace=wrap;strokeWidth=2;verticalAlign=top;fontSize=33;" vertex="1" parent="1">
          <mxGeometry x="9063" y="392" width="1084" height="116" as="geometry" />
        </mxCell>
        <mxCell id="qGz8__w2eA65XW-UulH--31" value="Customer Channel Services" style="whiteSpace=wrap;strokeWidth=2;fontSize=33;" vertex="1" parent="1">
          <mxGeometry x="5703" y="392" width="1481" height="116" as="geometry" />
        </mxCell>
        <mxCell id="qGz8__w2eA65XW-UulH--32" value="API &amp; Security Layer" style="whiteSpace=wrap;strokeWidth=2;verticalAlign=top;fontSize=33;" vertex="1" parent="1">
          <mxGeometry x="4656" y="218" width="4617" height="98" as="geometry" />
        </mxCell>
        <mxCell id="qGz8__w2eA65XW-UulH--33" value="Access Layer" style="whiteSpace=wrap;strokeWidth=2;fontSize=33;" vertex="1" parent="1">
          <mxGeometry x="4975" y="20" width="1886" height="148" as="geometry" />
        </mxCell>
        <mxCell id="qGz8__w2eA65XW-UulH--34" value="Internal Channels" style="whiteSpace=wrap;strokeWidth=2;verticalAlign=top;fontSize=33;" vertex="1" parent="1">
          <mxGeometry x="4995" y="45" width="892" height="98" as="geometry" />
        </mxCell>
        <mxCell id="qGz8__w2eA65XW-UulH--35" value="External Channels" style="whiteSpace=wrap;strokeWidth=2;verticalAlign=top;fontSize=33;" vertex="1" parent="1">
          <mxGeometry x="5907" y="45" width="934" height="98" as="geometry" />
        </mxCell>
        <mxCell id="qGz8__w2eA65XW-UulH--36" value="Corporate Portal" style="whiteSpace=wrap;strokeWidth=2;fontSize=33;" vertex="1" parent="1">
          <mxGeometry x="6627" y="70" width="179" height="48" as="geometry" />
        </mxCell>
        <mxCell id="qGz8__w2eA65XW-UulH--37" value="Mobile Banking" style="whiteSpace=wrap;strokeWidth=2;fontSize=33;" vertex="1" parent="1">
          <mxGeometry x="6410" y="70" width="167" height="48" as="geometry" />
        </mxCell>
        <mxCell id="qGz8__w2eA65XW-UulH--38" value="API Banking" style="whiteSpace=wrap;strokeWidth=2;fontSize=33;" vertex="1" parent="1">
          <mxGeometry x="6217" y="70" width="143" height="48" as="geometry" />
        </mxCell>
        <mxCell id="qGz8__w2eA65XW-UulH--39" value="Business Partner Portal" style="whiteSpace=wrap;strokeWidth=2;fontSize=33;" vertex="1" parent="1">
          <mxGeometry x="5942" y="70" width="224" height="48" as="geometry" />
        </mxCell>
        <mxCell id="qGz8__w2eA65XW-UulH--40" value="Operations Portal" style="whiteSpace=wrap;strokeWidth=2;fontSize=33;" vertex="1" parent="1">
          <mxGeometry x="5667" y="70" width="185" height="48" as="geometry" />
        </mxCell>
        <mxCell id="qGz8__w2eA65XW-UulH--41" value="Risk Dashboard" style="whiteSpace=wrap;strokeWidth=2;fontSize=33;" vertex="1" parent="1">
          <mxGeometry x="5450" y="70" width="168" height="48" as="geometry" />
        </mxCell>
        <mxCell id="qGz8__w2eA65XW-UulH--42" value="Admin Portal" style="whiteSpace=wrap;strokeWidth=2;fontSize=33;" vertex="1" parent="1">
          <mxGeometry x="5247" y="70" width="152" height="48" as="geometry" />
        </mxCell>
        <mxCell id="qGz8__w2eA65XW-UulH--43" value="Treasury Portal" style="whiteSpace=wrap;strokeWidth=2;fontSize=33;" vertex="1" parent="1">
          <mxGeometry x="5030" y="70" width="167" height="48" as="geometry" />
        </mxCell>
        <mxCell id="qGz8__w2eA65XW-UulH--44" value="API Gateway" style="whiteSpace=wrap;strokeWidth=2;fontSize=33;" vertex="1" parent="1">
          <mxGeometry x="5362" y="243" width="150" height="48" as="geometry" />
        </mxCell>
        <mxCell id="qGz8__w2eA65XW-UulH--45" value="API Security" style="whiteSpace=wrap;strokeWidth=2;fontSize=33;" vertex="1" parent="1">
          <mxGeometry x="6736" y="243" width="146" height="48" as="geometry" />
        </mxCell>
        <mxCell id="qGz8__w2eA65XW-UulH--46" value="Web Application Firewall" style="whiteSpace=wrap;strokeWidth=2;fontSize=33;" vertex="1" parent="1">
          <mxGeometry x="6931" y="243" width="238" height="48" as="geometry" />
        </mxCell>
        <mxCell id="qGz8__w2eA65XW-UulH--47" value="Load Balancer" style="whiteSpace=wrap;strokeWidth=2;fontSize=33;" vertex="1" parent="1">
          <mxGeometry x="7219" y="243" width="161" height="48" as="geometry" />
        </mxCell>
        <mxCell id="qGz8__w2eA65XW-UulH--48" value="customer-portal-service" style="whiteSpace=wrap;strokeWidth=2;fontSize=33;" vertex="1" parent="1">
          <mxGeometry x="5738" y="425" width="232" height="48" as="geometry" />
        </mxCell>
        <mxCell id="qGz8__w2eA65XW-UulH--49" value="customer-auth-service" style="whiteSpace=wrap;strokeWidth=2;fontSize=33;" vertex="1" parent="1">
          <mxGeometry x="6020" y="425" width="221" height="48" as="geometry" />
        </mxCell>
        <mxCell id="qGz8__w2eA65XW-UulH--50" value="customer-dashboard-service" style="whiteSpace=wrap;strokeWidth=2;fontSize=33;" vertex="1" parent="1">
          <mxGeometry x="6291" y="417" width="253" height="66" as="geometry" />
        </mxCell>
        <mxCell id="qGz8__w2eA65XW-UulH--51" value="customer-transaction-service" style="whiteSpace=wrap;strokeWidth=2;fontSize=33;" vertex="1" parent="1">
          <mxGeometry x="6594" y="417" width="253" height="66" as="geometry" />
        </mxCell>
        <mxCell id="qGz8__w2eA65XW-UulH--52" value="customer-role-matrix-service" style="whiteSpace=wrap;strokeWidth=2;fontSize=33;" vertex="1" parent="1">
          <mxGeometry x="6897" y="417" width="253" height="66" as="geometry" />
        </mxCell>
        <mxCell id="qGz8__w2eA65XW-UulH--53" value="ops-portal-service" style="whiteSpace=wrap;strokeWidth=2;fontSize=33;" vertex="1" parent="1">
          <mxGeometry x="9098" y="425" width="189" height="48" as="geometry" />
        </mxCell>
        <mxCell id="qGz8__w2eA65XW-UulH--54" value="ops-workqueue-service" style="whiteSpace=wrap;strokeWidth=2;fontSize=33;" vertex="1" parent="1">
          <mxGeometry x="9337" y="425" width="225" height="48" as="geometry" />
        </mxCell>
        <mxCell id="qGz8__w2eA65XW-UulH--55" value="ops-workflow-service" style="whiteSpace=wrap;strokeWidth=2;fontSize=33;" vertex="1" parent="1">
          <mxGeometry x="9612" y="425" width="212" height="48" as="geometry" />
        </mxCell>
        <mxCell id="qGz8__w2eA65XW-UulH--56" value="ops-taskmanager-service" style="whiteSpace=wrap;strokeWidth=2;fontSize=33;" vertex="1" parent="1">
          <mxGeometry x="9874" y="425" width="237" height="48" as="geometry" />
        </mxCell>
        <mxCell id="qGz8__w2eA65XW-UulH--57" value="mobile-banking-service" style="whiteSpace=wrap;strokeWidth=2;fontSize=33;" vertex="1" parent="1">
          <mxGeometry x="4906" y="425" width="226" height="48" as="geometry" />
        </mxCell>
        <mxCell id="qGz8__w2eA65XW-UulH--58" value="mobile-token-service" style="whiteSpace=wrap;strokeWidth=2;fontSize=33;" vertex="1" parent="1">
          <mxGeometry x="5183" y="425" width="211" height="48" as="geometry" />
        </mxCell>
        <mxCell id="qGz8__w2eA65XW-UulH--59" value="mobile-push-service" style="whiteSpace=wrap;strokeWidth=2;fontSize=33;" vertex="1" parent="1">
          <mxGeometry x="5444" y="425" width="204" height="48" as="geometry" />
        </mxCell>
        <mxCell id="qGz8__w2eA65XW-UulH--60" value="trade-master-service" style="whiteSpace=wrap;strokeWidth=2;fontSize=33;" vertex="1" parent="1">
          <mxGeometry x="4914" y="633" width="210" height="48" as="geometry" />
        </mxCell>
        <mxCell id="qGz8__w2eA65XW-UulH--61" value="trade-parameter-service" style="whiteSpace=wrap;strokeWidth=2;fontSize=33;" vertex="1" parent="1">
          <mxGeometry x="6935" y="633" width="236" height="48" as="geometry" />
        </mxCell>
        <mxCell id="qGz8__w2eA65XW-UulH--62" value="trade-workflow-service" style="whiteSpace=wrap;strokeWidth=2;fontSize=33;" vertex="1" parent="1">
          <mxGeometry x="9079" y="633" width="227" height="48" as="geometry" />
        </mxCell>
        <mxCell id="qGz8__w2eA65XW-UulH--63" value="trade-party-service" style="whiteSpace=wrap;strokeWidth=2;fontSize=33;" vertex="1" parent="1">
          <mxGeometry x="10350" y="633" width="199" height="48" as="geometry" />
        </mxCell>
        <mxCell id="qGz8__w2eA65XW-UulH--109" value="SWIFT Network" style="whiteSpace=wrap;strokeWidth=2;fontSize=33;" vertex="1" parent="1">
          <mxGeometry x="3284" y="1942" width="168" height="156" as="geometry" />
        </mxCell>
        <mxCell id="qGz8__w2eA65XW-UulH--110" value="BSAS Commodity" style="whiteSpace=wrap;strokeWidth=2;fontSize=33;" vertex="1" parent="1">
          <mxGeometry x="3515" y="1942" width="180" height="138" as="geometry" />
        </mxCell>
        <mxCell id="qGz8__w2eA65XW-UulH--111" value="EXIM Bank" style="whiteSpace=wrap;strokeWidth=2;fontSize=33;" vertex="1" parent="1">
          <mxGeometry x="3744" y="1942" width="132" height="148" as="geometry" />
        </mxCell>
        <mxCell id="qGz8__w2eA65XW-UulH--112" value="TCS&#xa;Core Banking" style="whiteSpace=wrap;strokeWidth=2;fontSize=33;" vertex="1" parent="1">
          <mxGeometry x="3933" y="1942" width="154" height="151" as="geometry" />
        </mxCell>
        <mxCell id="qGz8__w2eA65XW-UulH--113" value="Group&#xa;CIF" style="whiteSpace=wrap;strokeWidth=2;fontSize=33;" vertex="1" parent="1">
          <mxGeometry x="5970" y="1932.5" width="160" height="157" as="geometry" />
        </mxCell>
        <mxCell id="qGz8__w2eA65XW-UulH--114" value="Treasury" style="whiteSpace=wrap;strokeWidth=2;fontSize=33;" vertex="1" parent="1">
          <mxGeometry x="6443" y="1930.5" width="180" height="159" as="geometry" />
        </mxCell>
        <mxCell id="qGz8__w2eA65XW-UulH--115" value="Corporate Loan&#xa;System" style="whiteSpace=wrap;strokeWidth=2;fontSize=33;" vertex="1" parent="1">
          <mxGeometry x="6194" y="1935.5" width="170" height="151" as="geometry" />
        </mxCell>
        <mxCell id="qGz8__w2eA65XW-UulH--116" value="BNM" style="whiteSpace=wrap;strokeWidth=2;fontSize=33;" vertex="1" parent="1">
          <mxGeometry x="6712" y="1942" width="135" height="138" as="geometry" />
        </mxCell>
        <mxCell id="qGz8__w2eA65XW-UulH--117" value="" style="curved=1;startArrow=none;endArrow=block;exitX=0.5;exitY=1.01;entryX=1;entryY=0.45;rounded=0;fontSize=33;" edge="1" parent="1" source="qGz8__w2eA65XW-UulH--36" target="qGz8__w2eA65XW-UulH--44">
          <mxGeometry relative="1" as="geometry">
            <Array as="points">
              <mxPoint x="6716" y="218" />
            </Array>
          </mxGeometry>
        </mxCell>
        <mxCell id="qGz8__w2eA65XW-UulH--118" value="" style="curved=1;startArrow=none;endArrow=block;exitX=0.5;exitY=1.01;entryX=1;entryY=0.44;rounded=0;fontSize=33;" edge="1" parent="1" source="qGz8__w2eA65XW-UulH--37" target="qGz8__w2eA65XW-UulH--44">
          <mxGeometry relative="1" as="geometry">
            <Array as="points">
              <mxPoint x="6493" y="218" />
            </Array>
          </mxGeometry>
        </mxCell>
        <mxCell id="qGz8__w2eA65XW-UulH--119" value="" style="curved=1;startArrow=none;endArrow=block;exitX=0.5;exitY=1.01;entryX=1;entryY=0.42;rounded=0;fontSize=33;" edge="1" parent="1" source="qGz8__w2eA65XW-UulH--38" target="qGz8__w2eA65XW-UulH--44">
          <mxGeometry relative="1" as="geometry">
            <Array as="points">
              <mxPoint x="6288" y="218" />
            </Array>
          </mxGeometry>
        </mxCell>
        <mxCell id="qGz8__w2eA65XW-UulH--120" value="" style="curved=1;startArrow=none;endArrow=block;exitX=0.5;exitY=1.01;entryX=1;entryY=0.39;rounded=0;fontSize=33;" edge="1" parent="1" source="qGz8__w2eA65XW-UulH--39" target="qGz8__w2eA65XW-UulH--44">
          <mxGeometry relative="1" as="geometry">
            <Array as="points">
              <mxPoint x="6054" y="218" />
            </Array>
          </mxGeometry>
        </mxCell>
        <mxCell id="qGz8__w2eA65XW-UulH--121" value="" style="curved=1;startArrow=none;endArrow=block;exitX=0.5;exitY=1.01;entryX=1;entryY=0.27;rounded=0;fontSize=33;" edge="1" parent="1" source="qGz8__w2eA65XW-UulH--40" target="qGz8__w2eA65XW-UulH--44">
          <mxGeometry relative="1" as="geometry">
            <Array as="points">
              <mxPoint x="5760" y="218" />
            </Array>
          </mxGeometry>
        </mxCell>
        <mxCell id="qGz8__w2eA65XW-UulH--122" value="" style="curved=1;startArrow=none;endArrow=block;exitX=0.5;exitY=1.01;entryX=0.82;entryY=0.01;rounded=0;fontSize=33;" edge="1" parent="1" source="qGz8__w2eA65XW-UulH--41" target="qGz8__w2eA65XW-UulH--44">
          <mxGeometry relative="1" as="geometry">
            <Array as="points">
              <mxPoint x="5533" y="218" />
            </Array>
          </mxGeometry>
        </mxCell>
        <mxCell id="qGz8__w2eA65XW-UulH--123" value="" style="curved=1;startArrow=none;endArrow=block;exitX=0.5;exitY=1.01;entryX=0.13;entryY=0.01;rounded=0;fontSize=33;" edge="1" parent="1" source="qGz8__w2eA65XW-UulH--42" target="qGz8__w2eA65XW-UulH--44">
          <mxGeometry relative="1" as="geometry">
            <Array as="points">
              <mxPoint x="5323" y="218" />
            </Array>
          </mxGeometry>
        </mxCell>
        <mxCell id="qGz8__w2eA65XW-UulH--124" value="" style="curved=1;startArrow=none;endArrow=block;exitX=0.5;exitY=1.01;entryX=0;entryY=0.27;rounded=0;fontSize=33;" edge="1" parent="1" source="qGz8__w2eA65XW-UulH--43" target="qGz8__w2eA65XW-UulH--44">
          <mxGeometry relative="1" as="geometry">
            <Array as="points">
              <mxPoint x="5114" y="218" />
            </Array>
          </mxGeometry>
        </mxCell>
        <mxCell id="qGz8__w2eA65XW-UulH--125" value="" style="curved=1;startArrow=none;endArrow=block;exitX=1;exitY=0.69;entryX=0.5;entryY=0.01;rounded=0;fontSize=33;" edge="1" parent="1" source="qGz8__w2eA65XW-UulH--44" target="qGz8__w2eA65XW-UulH--48">
          <mxGeometry relative="1" as="geometry">
            <Array as="points">
              <mxPoint x="5854" y="317" />
            </Array>
          </mxGeometry>
        </mxCell>
        <mxCell id="qGz8__w2eA65XW-UulH--126" value="" style="curved=1;startArrow=none;endArrow=block;exitX=1;exitY=0.53;entryX=0.5;entryY=0.01;rounded=0;fontSize=33;" edge="1" parent="1" source="qGz8__w2eA65XW-UulH--44" target="qGz8__w2eA65XW-UulH--53">
          <mxGeometry relative="1" as="geometry">
            <Array as="points">
              <mxPoint x="9192" y="317" />
            </Array>
          </mxGeometry>
        </mxCell>
        <mxCell id="qGz8__w2eA65XW-UulH--127" value="" style="curved=1;startArrow=none;endArrow=block;exitX=0;exitY=0.69;entryX=0.5;entryY=0.01;rounded=0;fontSize=33;" edge="1" parent="1" source="qGz8__w2eA65XW-UulH--44" target="qGz8__w2eA65XW-UulH--57">
          <mxGeometry relative="1" as="geometry">
            <Array as="points">
              <mxPoint x="5019" y="317" />
            </Array>
          </mxGeometry>
        </mxCell>
        <mxCell id="qGz8__w2eA65XW-UulH--128" value="" style="curved=1;startArrow=none;endArrow=block;exitX=0.5;exitY=1.02;entryX=1;entryY=0.37;rounded=0;fontSize=33;" edge="1" parent="1" source="qGz8__w2eA65XW-UulH--48" target="qGz8__w2eA65XW-UulH--60">
          <mxGeometry relative="1" as="geometry">
            <Array as="points">
              <mxPoint x="5854" y="608" />
            </Array>
          </mxGeometry>
        </mxCell>
        <mxCell id="qGz8__w2eA65XW-UulH--129" value="" style="curved=1;startArrow=none;endArrow=block;exitX=0.5;exitY=1.02;entryX=0.5;entryY=-0.01;rounded=0;fontSize=33;" edge="1" parent="1" source="qGz8__w2eA65XW-UulH--53" target="qGz8__w2eA65XW-UulH--62">
          <mxGeometry relative="1" as="geometry">
            <Array as="points" />
          </mxGeometry>
        </mxCell>
        <mxCell id="qGz8__w2eA65XW-UulH--130" value="" style="curved=1;startArrow=none;endArrow=block;exitX=0.5;exitY=1.02;entryX=0.5;entryY=-0.01;rounded=0;fontSize=33;" edge="1" parent="1" source="qGz8__w2eA65XW-UulH--57" target="qGz8__w2eA65XW-UulH--60">
          <mxGeometry relative="1" as="geometry">
            <Array as="points" />
          </mxGeometry>
        </mxCell>
        <mxCell id="qGz8__w2eA65XW-UulH--166" value="" style="group" vertex="1" connectable="0" parent="1">
          <mxGeometry x="40" y="841" width="998" height="321" as="geometry" />
        </mxCell>
        <mxCell id="qGz8__w2eA65XW-UulH--21" value="Supply Chain Finance" style="whiteSpace=wrap;strokeWidth=2;verticalAlign=top;fontSize=33;" vertex="1" parent="qGz8__w2eA65XW-UulH--166">
          <mxGeometry width="998" height="321" as="geometry" />
        </mxCell>
        <mxCell id="qGz8__w2eA65XW-UulH--80" value="scf-program-service" style="whiteSpace=wrap;strokeWidth=2;fontSize=33;" vertex="1" parent="qGz8__w2eA65XW-UulH--166">
          <mxGeometry x="278" y="147" width="202" height="108" as="geometry" />
        </mxCell>
        <mxCell id="qGz8__w2eA65XW-UulH--81" value="scf-invoice-service" style="whiteSpace=wrap;strokeWidth=2;fontSize=33;" vertex="1" parent="qGz8__w2eA65XW-UulH--166">
          <mxGeometry x="35" y="147" width="193" height="111" as="geometry" />
        </mxCell>
        <mxCell id="qGz8__w2eA65XW-UulH--82" value="scf-buyer-service" style="whiteSpace=wrap;strokeWidth=2;fontSize=33;" vertex="1" parent="qGz8__w2eA65XW-UulH--166">
          <mxGeometry x="531" y="147" width="183" height="107" as="geometry" />
        </mxCell>
        <mxCell id="qGz8__w2eA65XW-UulH--83" value="scf-supplier-service" style="whiteSpace=wrap;strokeWidth=2;fontSize=33;" vertex="1" parent="qGz8__w2eA65XW-UulH--166">
          <mxGeometry x="764" y="147" width="200" height="108" as="geometry" />
        </mxCell>
        <mxCell id="qGz8__w2eA65XW-UulH--167" value="" style="group" vertex="1" connectable="0" parent="1">
          <mxGeometry x="1058" y="845" width="1133" height="317" as="geometry" />
        </mxCell>
        <mxCell id="qGz8__w2eA65XW-UulH--22" value="Trade Finance" style="whiteSpace=wrap;strokeWidth=2;verticalAlign=top;fontSize=33;" vertex="1" parent="qGz8__w2eA65XW-UulH--167">
          <mxGeometry width="1133" height="317" as="geometry" />
        </mxCell>
        <mxCell id="qGz8__w2eA65XW-UulH--76" value="trust-receipt-service" style="whiteSpace=wrap;strokeWidth=2;fontSize=33;" vertex="1" parent="qGz8__w2eA65XW-UulH--167">
          <mxGeometry x="345" y="143" width="208" height="125" as="geometry" />
        </mxCell>
        <mxCell id="qGz8__w2eA65XW-UulH--77" value="bankers-acceptance-service" style="whiteSpace=wrap;strokeWidth=2;fontSize=33;" vertex="1" parent="qGz8__w2eA65XW-UulH--167">
          <mxGeometry x="35" y="143" width="260" height="138" as="geometry" />
        </mxCell>
        <mxCell id="qGz8__w2eA65XW-UulH--78" value="invoice-finance-service" style="whiteSpace=wrap;strokeWidth=2;fontSize=33;" vertex="1" parent="qGz8__w2eA65XW-UulH--167">
          <mxGeometry x="603" y="143" width="226" height="123" as="geometry" />
        </mxCell>
        <mxCell id="qGz8__w2eA65XW-UulH--79" value="packing-credit-service" style="whiteSpace=wrap;strokeWidth=2;fontSize=33;" vertex="1" parent="qGz8__w2eA65XW-UulH--167">
          <mxGeometry x="879" y="143" width="220" height="120" as="geometry" />
        </mxCell>
        <mxCell id="qGz8__w2eA65XW-UulH--168" value="" style="group" vertex="1" connectable="0" parent="1">
          <mxGeometry x="4316" y="1689" width="1422" height="513" as="geometry" />
        </mxCell>
        <mxCell id="qGz8__w2eA65XW-UulH--15" value="(External) Risk &amp; Compliance" style="whiteSpace=wrap;strokeWidth=2;verticalAlign=top;fontSize=33;" vertex="1" parent="qGz8__w2eA65XW-UulH--168">
          <mxGeometry y="202" width="1422" height="244" as="geometry" />
        </mxCell>
        <mxCell id="qGz8__w2eA65XW-UulH--96" value="aml-screening-service" style="whiteSpace=wrap;strokeWidth=2;fontSize=33;" vertex="1" parent="qGz8__w2eA65XW-UulH--168">
          <mxGeometry x="35" y="288" width="217" height="126" as="geometry" />
        </mxCell>
        <mxCell id="qGz8__w2eA65XW-UulH--97" value="kyc-verification-service" style="whiteSpace=wrap;strokeWidth=2;fontSize=33;" vertex="1" parent="qGz8__w2eA65XW-UulH--168">
          <mxGeometry x="302" y="288" width="228" height="125" as="geometry" />
        </mxCell>
        <mxCell id="qGz8__w2eA65XW-UulH--98" value="fraud-detection-service" style="whiteSpace=wrap;strokeWidth=2;fontSize=33;" vertex="1" parent="qGz8__w2eA65XW-UulH--168">
          <mxGeometry x="580" y="288" width="229" height="125" as="geometry" />
        </mxCell>
        <mxCell id="qGz8__w2eA65XW-UulH--99" value="sanction-screening-service" style="whiteSpace=wrap;strokeWidth=2;fontSize=33;" vertex="1" parent="qGz8__w2eA65XW-UulH--168">
          <mxGeometry x="859" y="288" width="250" height="123" as="geometry" />
        </mxCell>
        <mxCell id="qGz8__w2eA65XW-UulH--100" value="risk-assessment-service" style="whiteSpace=wrap;strokeWidth=2;fontSize=33;" vertex="1" parent="qGz8__w2eA65XW-UulH--168">
          <mxGeometry x="1160" y="288" width="228" height="123" as="geometry" />
        </mxCell>
        <mxCell id="qGz8__w2eA65XW-UulH--169" value="" style="group" vertex="1" connectable="0" parent="1">
          <mxGeometry x="1338" y="2475" width="993" height="282" as="geometry" />
        </mxCell>
        <mxCell id="qGz8__w2eA65XW-UulH--14" value="Payment Messaging" style="whiteSpace=wrap;strokeWidth=2;verticalAlign=top;fontSize=33;" vertex="1" parent="qGz8__w2eA65XW-UulH--169">
          <mxGeometry width="993" height="282" as="geometry" />
        </mxCell>
        <mxCell id="qGz8__w2eA65XW-UulH--101" value="swift-message-service" style="whiteSpace=wrap;strokeWidth=2;fontSize=33;" vertex="1" parent="qGz8__w2eA65XW-UulH--169">
          <mxGeometry x="35" y="76" width="218" height="151" as="geometry" />
        </mxCell>
        <mxCell id="qGz8__w2eA65XW-UulH--102" value="swift-mt-service" style="whiteSpace=wrap;strokeWidth=2;fontSize=33;" vertex="1" parent="qGz8__w2eA65XW-UulH--169">
          <mxGeometry x="302" y="76" width="177" height="148" as="geometry" />
        </mxCell>
        <mxCell id="qGz8__w2eA65XW-UulH--103" value="swift-mx-service" style="whiteSpace=wrap;strokeWidth=2;fontSize=33;" vertex="1" parent="qGz8__w2eA65XW-UulH--169">
          <mxGeometry x="529" y="76" width="179" height="148" as="geometry" />
        </mxCell>
        <mxCell id="qGz8__w2eA65XW-UulH--104" value="notification-service" style="whiteSpace=wrap;strokeWidth=2;fontSize=33;" vertex="1" parent="qGz8__w2eA65XW-UulH--169">
          <mxGeometry x="758" y="76" width="200" height="153" as="geometry" />
        </mxCell>
        <mxCell id="qGz8__w2eA65XW-UulH--170" value="" style="group" vertex="1" connectable="0" parent="1">
          <mxGeometry x="79" y="2475" width="1188" height="282" as="geometry" />
        </mxCell>
        <mxCell id="qGz8__w2eA65XW-UulH--17" value="Payment Services" style="whiteSpace=wrap;strokeWidth=2;verticalAlign=top;fontSize=33;" vertex="1" parent="qGz8__w2eA65XW-UulH--170">
          <mxGeometry width="1188" height="282" as="geometry" />
        </mxCell>
        <mxCell id="qGz8__w2eA65XW-UulH--92" value="payment-settlement-service" style="whiteSpace=wrap;strokeWidth=2;fontSize=33;" vertex="1" parent="qGz8__w2eA65XW-UulH--170">
          <mxGeometry x="55" y="76" width="254" height="141" as="geometry" />
        </mxCell>
        <mxCell id="qGz8__w2eA65XW-UulH--93" value="payment-forex-service" style="whiteSpace=wrap;strokeWidth=2;fontSize=33;" vertex="1" parent="qGz8__w2eA65XW-UulH--170">
          <mxGeometry x="362" y="76" width="222" height="121" as="geometry" />
        </mxCell>
        <mxCell id="qGz8__w2eA65XW-UulH--94" value="payment-nostro-service" style="whiteSpace=wrap;strokeWidth=2;fontSize=33;" vertex="1" parent="qGz8__w2eA65XW-UulH--170">
          <mxGeometry x="634" y="76" width="229" height="121" as="geometry" />
        </mxCell>
        <mxCell id="qGz8__w2eA65XW-UulH--95" value="payment-charges-service" style="whiteSpace=wrap;strokeWidth=2;fontSize=33;" vertex="1" parent="qGz8__w2eA65XW-UulH--170">
          <mxGeometry x="914" y="76" width="239" height="116" as="geometry" />
        </mxCell>
        <mxCell id="qGz8__w2eA65XW-UulH--173" value="" style="group" vertex="1" connectable="0" parent="1">
          <mxGeometry x="451" y="1571" width="1250" height="307" as="geometry" />
        </mxCell>
        <mxCell id="qGz8__w2eA65XW-UulH--25" value="Bills &amp; Collections" style="whiteSpace=wrap;strokeWidth=2;verticalAlign=top;fontSize=33;" vertex="1" parent="qGz8__w2eA65XW-UulH--173">
          <mxGeometry width="1250" height="307" as="geometry" />
        </mxCell>
        <mxCell id="qGz8__w2eA65XW-UulH--68" value="import-bills-under-lc-service" style="whiteSpace=wrap;strokeWidth=2;fontSize=33;" vertex="1" parent="qGz8__w2eA65XW-UulH--173">
          <mxGeometry x="35" y="103" width="257" height="140" as="geometry" />
        </mxCell>
        <mxCell id="qGz8__w2eA65XW-UulH--69" value="export-bills-under-lc-service" style="whiteSpace=wrap;strokeWidth=2;fontSize=33;" vertex="1" parent="qGz8__w2eA65XW-UulH--173">
          <mxGeometry x="341" y="103" width="255" height="140" as="geometry" />
        </mxCell>
        <mxCell id="qGz8__w2eA65XW-UulH--70" value="import-collection-bills-service" style="whiteSpace=wrap;strokeWidth=2;fontSize=33;" vertex="1" parent="qGz8__w2eA65XW-UulH--173">
          <mxGeometry x="647" y="103" width="260" height="140" as="geometry" />
        </mxCell>
        <mxCell id="qGz8__w2eA65XW-UulH--71" value="export-collection-bills-service" style="whiteSpace=wrap;strokeWidth=2;fontSize=33;" vertex="1" parent="qGz8__w2eA65XW-UulH--173">
          <mxGeometry x="956" y="103" width="258" height="136" as="geometry" />
        </mxCell>
        <mxCell id="qGz8__w2eA65XW-UulH--174" value="" style="group" vertex="1" connectable="0" parent="1">
          <mxGeometry x="9075" y="2037" width="1166" height="255" as="geometry" />
        </mxCell>
        <mxCell id="qGz8__w2eA65XW-UulH--19" value="Limit Management" style="whiteSpace=wrap;strokeWidth=2;verticalAlign=top;fontSize=33;" vertex="1" parent="qGz8__w2eA65XW-UulH--174">
          <mxGeometry width="1166" height="255" as="geometry" />
        </mxCell>
        <mxCell id="qGz8__w2eA65XW-UulH--84" value="limit-master-service" style="whiteSpace=wrap;strokeWidth=2;fontSize=33;" vertex="1" parent="qGz8__w2eA65XW-UulH--174">
          <mxGeometry x="103" y="109" width="205" height="118" as="geometry" />
        </mxCell>
        <mxCell id="qGz8__w2eA65XW-UulH--85" value="limit-exposure-service" style="whiteSpace=wrap;strokeWidth=2;fontSize=33;" vertex="1" parent="qGz8__w2eA65XW-UulH--174">
          <mxGeometry x="358" y="109" width="220" height="118" as="geometry" />
        </mxCell>
        <mxCell id="qGz8__w2eA65XW-UulH--86" value="limit-utilization-service" style="whiteSpace=wrap;strokeWidth=2;fontSize=33;" vertex="1" parent="qGz8__w2eA65XW-UulH--174">
          <mxGeometry x="628" y="109" width="229" height="110" as="geometry" />
        </mxCell>
        <mxCell id="qGz8__w2eA65XW-UulH--87" value="limit-collateral-service" style="whiteSpace=wrap;strokeWidth=2;fontSize=33;" vertex="1" parent="qGz8__w2eA65XW-UulH--174">
          <mxGeometry x="907" y="109" width="224" height="112" as="geometry" />
        </mxCell>
        <mxCell id="qGz8__w2eA65XW-UulH--175" value="" style="group" vertex="1" connectable="0" parent="1">
          <mxGeometry x="7788" y="2035" width="1191" height="257" as="geometry" />
        </mxCell>
        <mxCell id="qGz8__w2eA65XW-UulH--176" value="" style="group" vertex="1" connectable="0" parent="qGz8__w2eA65XW-UulH--175">
          <mxGeometry width="1191" height="257" as="geometry" />
        </mxCell>
        <mxCell id="qGz8__w2eA65XW-UulH--18" value="Document Management" style="whiteSpace=wrap;strokeWidth=2;verticalAlign=top;fontSize=33;" vertex="1" parent="qGz8__w2eA65XW-UulH--176">
          <mxGeometry width="1191" height="257" as="geometry" />
        </mxCell>
        <mxCell id="qGz8__w2eA65XW-UulH--88" value="document-content-service" style="whiteSpace=wrap;strokeWidth=2;fontSize=33;" vertex="1" parent="qGz8__w2eA65XW-UulH--176">
          <mxGeometry x="35" y="109" width="249" height="126" as="geometry" />
        </mxCell>
        <mxCell id="qGz8__w2eA65XW-UulH--89" value="document-workflow-service" style="whiteSpace=wrap;strokeWidth=2;fontSize=33;" vertex="1" parent="qGz8__w2eA65XW-UulH--176">
          <mxGeometry x="334" y="109" width="259" height="128" as="geometry" />
        </mxCell>
        <mxCell id="qGz8__w2eA65XW-UulH--90" value="document-ocr-service" style="whiteSpace=wrap;strokeWidth=2;fontSize=33;" vertex="1" parent="qGz8__w2eA65XW-UulH--176">
          <mxGeometry x="643" y="109" width="216" height="124" as="geometry" />
        </mxCell>
        <mxCell id="qGz8__w2eA65XW-UulH--91" value="document-storage-service" style="whiteSpace=wrap;strokeWidth=2;fontSize=33;" vertex="1" parent="qGz8__w2eA65XW-UulH--176">
          <mxGeometry x="909" y="109" width="246" height="124" as="geometry" />
        </mxCell>
        <mxCell id="qGz8__w2eA65XW-UulH--180" value="" style="group" vertex="1" connectable="0" parent="1">
          <mxGeometry x="10712" y="754" width="1722" height="513" as="geometry" />
        </mxCell>
        <mxCell id="qGz8__w2eA65XW-UulH--2" value="Data Services" style="whiteSpace=wrap;strokeWidth=2;fontSize=33;verticalAlign=top;" vertex="1" parent="qGz8__w2eA65XW-UulH--180">
          <mxGeometry width="1722" height="513" as="geometry" />
        </mxCell>
        <mxCell id="qGz8__w2eA65XW-UulH--177" value="" style="group" vertex="1" connectable="0" parent="qGz8__w2eA65XW-UulH--180">
          <mxGeometry x="548" y="148" width="1111" height="263" as="geometry" />
        </mxCell>
        <mxCell id="qGz8__w2eA65XW-UulH--8" value="Reporting" style="whiteSpace=wrap;strokeWidth=2;verticalAlign=top;fontSize=33;" vertex="1" parent="qGz8__w2eA65XW-UulH--177">
          <mxGeometry width="1111" height="263" as="geometry" />
        </mxCell>
        <mxCell id="qGz8__w2eA65XW-UulH--105" value="report-generation-service" style="whiteSpace=wrap;strokeWidth=2;fontSize=33;" vertex="1" parent="qGz8__w2eA65XW-UulH--177">
          <mxGeometry x="35" y="104" width="244" height="140" as="geometry" />
        </mxCell>
        <mxCell id="qGz8__w2eA65XW-UulH--106" value="analytics-service" style="whiteSpace=wrap;strokeWidth=2;fontSize=33;" vertex="1" parent="qGz8__w2eA65XW-UulH--177">
          <mxGeometry x="330" y="104" width="180" height="133" as="geometry" />
        </mxCell>
        <mxCell id="qGz8__w2eA65XW-UulH--107" value="regulatory-reporting-service" style="whiteSpace=wrap;strokeWidth=2;fontSize=33;" vertex="1" parent="qGz8__w2eA65XW-UulH--177">
          <mxGeometry x="560" y="96" width="254" height="136" as="geometry" />
        </mxCell>
        <mxCell id="qGz8__w2eA65XW-UulH--108" value="mis-reporting-service" style="whiteSpace=wrap;strokeWidth=2;fontSize=33;" vertex="1" parent="qGz8__w2eA65XW-UulH--177">
          <mxGeometry x="863" y="104" width="213" height="123" as="geometry" />
        </mxCell>
        <mxCell id="qGz8__w2eA65XW-UulH--178" value="" style="group" vertex="1" connectable="0" parent="qGz8__w2eA65XW-UulH--180">
          <mxGeometry x="47" y="52" width="511" height="426" as="geometry" />
        </mxCell>
        <mxCell id="qGz8__w2eA65XW-UulH--179" value="" style="group" vertex="1" connectable="0" parent="qGz8__w2eA65XW-UulH--178">
          <mxGeometry width="474" height="426" as="geometry" />
        </mxCell>
        <mxCell id="qGz8__w2eA65XW-UulH--3" value="Data Management" style="whiteSpace=wrap;strokeWidth=2;verticalAlign=top;fontSize=33;container=0;" vertex="1" parent="qGz8__w2eA65XW-UulH--179">
          <mxGeometry width="474" height="426" as="geometry" />
        </mxCell>
        <mxCell id="qGz8__w2eA65XW-UulH--4" value="archival-service" style="whiteSpace=wrap;strokeWidth=2;fontSize=33;" vertex="1" parent="qGz8__w2eA65XW-UulH--179">
          <mxGeometry x="83.52416666666606" y="104.0048426150122" width="306.9548611111111" height="45.09443099273608" as="geometry" />
        </mxCell>
        <mxCell id="qGz8__w2eA65XW-UulH--5" value="audit-service" style="whiteSpace=wrap;strokeWidth=2;fontSize=33;" vertex="1" parent="qGz8__w2eA65XW-UulH--179">
          <mxGeometry x="101.26722222222263" y="174.46489104116222" width="271.46875" height="45.09443099273608" as="geometry" />
        </mxCell>
        <mxCell id="qGz8__w2eA65XW-UulH--6" value="housekeeping-service" style="whiteSpace=wrap;strokeWidth=2;fontSize=33;" vertex="1" parent="qGz8__w2eA65XW-UulH--179">
          <mxGeometry x="48.03805555555475" y="253.3801452784503" width="377.9270833333333" height="45.09443099273608" as="geometry" />
        </mxCell>
        <mxCell id="qGz8__w2eA65XW-UulH--7" value="logging-service" style="whiteSpace=wrap;strokeWidth=2;fontSize=33;" vertex="1" parent="qGz8__w2eA65XW-UulH--179">
          <mxGeometry x="88.84708333333394" y="326.65859564164657" width="296.30902777777777" height="45.09443099273608" as="geometry" />
        </mxCell>
        <mxCell id="qGz8__w2eA65XW-UulH--182" value="" style="group" vertex="1" connectable="0" parent="1">
          <mxGeometry x="20.5" y="1256" width="1037" height="259" as="geometry" />
        </mxCell>
        <mxCell id="qGz8__w2eA65XW-UulH--183" value="Letter of Credit" style="whiteSpace=wrap;strokeWidth=2;verticalAlign=top;fontSize=33;" vertex="1" parent="qGz8__w2eA65XW-UulH--182">
          <mxGeometry x="29" width="977" height="259" as="geometry" />
        </mxCell>
        <mxCell id="qGz8__w2eA65XW-UulH--184" value="import-lc-service" style="whiteSpace=wrap;strokeWidth=2;fontSize=33;" vertex="1" parent="qGz8__w2eA65XW-UulH--182">
          <mxGeometry x="276" y="103" width="183" height="128" as="geometry" />
        </mxCell>
        <mxCell id="qGz8__w2eA65XW-UulH--185" value="export-lc-service" style="whiteSpace=wrap;strokeWidth=2;fontSize=33;" vertex="1" parent="qGz8__w2eA65XW-UulH--182">
          <mxGeometry x="58" y="99" width="182" height="130" as="geometry" />
        </mxCell>
        <mxCell id="qGz8__w2eA65XW-UulH--186" value="lc-amendment-service" style="whiteSpace=wrap;strokeWidth=2;fontSize=33;" vertex="1" parent="qGz8__w2eA65XW-UulH--182">
          <mxGeometry x="508" y="103" width="220" height="130" as="geometry" />
        </mxCell>
        <mxCell id="qGz8__w2eA65XW-UulH--187" value="lc-document-service" style="whiteSpace=wrap;strokeWidth=2;fontSize=33;" vertex="1" parent="qGz8__w2eA65XW-UulH--182">
          <mxGeometry x="774" y="105" width="206" height="124" as="geometry" />
        </mxCell>
        <mxCell id="qGz8__w2eA65XW-UulH--172" value="" style="group" vertex="1" connectable="0" parent="1">
          <mxGeometry x="1067" y="1250" width="1105" height="265" as="geometry" />
        </mxCell>
        <mxCell id="qGz8__w2eA65XW-UulH--24" value="Bank Guarantee" style="whiteSpace=wrap;strokeWidth=2;verticalAlign=top;fontSize=33;" vertex="1" parent="qGz8__w2eA65XW-UulH--172">
          <mxGeometry width="1105" height="265" as="geometry" />
        </mxCell>
        <mxCell id="qGz8__w2eA65XW-UulH--72" value="bank-guarantee-service" style="whiteSpace=wrap;strokeWidth=2;fontSize=33;" vertex="1" parent="qGz8__w2eA65XW-UulH--172">
          <mxGeometry x="35" y="79.13698630136986" width="229" height="107.45205479452054" as="geometry" />
        </mxCell>
        <mxCell id="qGz8__w2eA65XW-UulH--73" value="bg-amendment-service" style="whiteSpace=wrap;strokeWidth=2;fontSize=33;" vertex="1" parent="qGz8__w2eA65XW-UulH--172">
          <mxGeometry x="314" y="79.13698630136986" width="224" height="107.45205479452054" as="geometry" />
        </mxCell>
        <mxCell id="qGz8__w2eA65XW-UulH--74" value="bg-claim-service" style="whiteSpace=wrap;strokeWidth=2;fontSize=33;" vertex="1" parent="qGz8__w2eA65XW-UulH--172">
          <mxGeometry x="588" y="79.13698630136986" width="178" height="104.54794520547945" as="geometry" />
        </mxCell>
        <mxCell id="qGz8__w2eA65XW-UulH--75" value="shipping-guarantee-service" style="whiteSpace=wrap;strokeWidth=2;fontSize=33;" vertex="1" parent="qGz8__w2eA65XW-UulH--172">
          <mxGeometry x="816" y="79.13698630136986" width="254" height="104.54794520547945" as="geometry" />
        </mxCell>
        <mxCell id="qGz8__w2eA65XW-UulH--188" value="" style="group" vertex="1" connectable="0" parent="1">
          <mxGeometry x="2543" y="1909" width="305" height="348" as="geometry" />
        </mxCell>
        <mxCell id="qGz8__w2eA65XW-UulH--10" value="Communication" style="whiteSpace=wrap;strokeWidth=2;verticalAlign=top;fontSize=33;container=0;" vertex="1" parent="qGz8__w2eA65XW-UulH--188">
          <mxGeometry width="305" height="348" as="geometry" />
        </mxCell>
        <mxCell id="qGz8__w2eA65XW-UulH--11" value="email-service" style="whiteSpace=wrap;strokeWidth=2;fontSize=33;container=0;" vertex="1" parent="qGz8__w2eA65XW-UulH--188">
          <mxGeometry x="82" y="46.328173374613016" width="156" height="76.49535603715171" as="geometry" />
        </mxCell>
        <mxCell id="qGz8__w2eA65XW-UulH--12" value="correspondence-service" style="whiteSpace=wrap;strokeWidth=2;fontSize=33;container=0;" vertex="1" parent="qGz8__w2eA65XW-UulH--188">
          <mxGeometry x="46" y="151.91331269349848" width="230" height="87.26934984520123" as="geometry" />
        </mxCell>
        <mxCell id="qGz8__w2eA65XW-UulH--13" value="tracer-service" style="whiteSpace=wrap;strokeWidth=2;fontSize=33;container=0;" vertex="1" parent="qGz8__w2eA65XW-UulH--188">
          <mxGeometry x="80" y="258.5758513931887" width="160" height="89.42414860681114" as="geometry" />
        </mxCell>
      </root>
    </mxGraphModel>
  </diagram>
</mxfile>
